<?xml version="1.0" encoding="UTF-8" standalone="no"?>
<!DOCTYPE svg PUBLIC "-//W3C//DTD SVG 1.1//EN"
 "http://www.w3.org/Graphics/SVG/1.1/DTD/svg11.dtd">
<!-- Generated by graphviz version 2.44.1 (20200629.0800)
 -->
<!-- Title: G Pages: 1 -->
<svg width="113pt" height="268pt"
 viewBox="0.00 0.00 112.50 268.00" xmlns="http://www.w3.org/2000/svg" xmlns:xlink="http://www.w3.org/1999/xlink">
<g id="graph0" class="graph" transform="scale(1 1) rotate(0) translate(4 264)">
<title>G</title>
<polygon fill="white" stroke="transparent" points="-4,4 -4,-264 108.5,-264 108.5,4 -4,4"/>
<!-- Inicio0 -->
<g id="node1" class="node">
<title>Inicio0</title>
<ellipse fill="red" stroke="black" cx="54" cy="-242" rx="31.4" ry="18"/>
<text text-anchor="middle" x="54" y="-238.3" font-family="Times New Roman,serif" font-size="14.00">Inicio</text>
</g>
<!-- Si2 -->
<g id="node2" class="node">
<title>Si2</title>
<ellipse fill="white" stroke="black" cx="27" cy="-170" rx="27" ry="18"/>
<text text-anchor="middle" x="27" y="-166.3" font-family="Times New Roman,serif" font-size="14.00">Si</text>
</g>
<!-- Inicio0&#45;&gt;Si2 -->
<g id="edge1" class="edge">
<title>Inicio0&#45;&gt;Si2</title>
<path fill="none" stroke="black" d="M47.46,-224.05C44.38,-216.06 40.63,-206.33 37.18,-197.4"/>
<polygon fill="black" stroke="black" points="40.34,-195.86 33.48,-187.79 33.81,-198.38 40.34,-195.86"/>
</g>
<!-- 33 -->
<g id="node3" class="node">
<title>33</title>
<ellipse fill="white" stroke="black" cx="54" cy="-98" rx="27" ry="18"/>
<text text-anchor="middle" x="54" y="-94.3" font-family="Times New Roman,serif" font-size="14.00">3</text>
</g>
<!-- Inicio0&#45;&gt;33 -->
<g id="edge2" class="edge">
<title>Inicio0&#45;&gt;33</title>
<path fill="none" stroke="black" d="M57.65,-223.91C59.68,-213.57 61.98,-200.09 63,-188 64.34,-172.06 64.34,-167.94 63,-152 62.28,-143.5 60.93,-134.31 59.49,-126.01"/>
<polygon fill="black" stroke="black" points="62.91,-125.29 57.65,-116.09 56.03,-126.56 62.91,-125.29"/>
</g>
<!-- Si2&#45;&gt;33 -->
<g id="edge3" class="edge">
<title>Si2&#45;&gt;33</title>
<path fill="none" stroke="black" d="M33.4,-152.41C36.51,-144.34 40.33,-134.43 43.83,-125.35"/>
<polygon fill="black" stroke="black" points="47.13,-126.55 47.46,-115.96 40.6,-124.03 47.13,-126.55"/>
</g>
<!-- Final1 -->
<g id="node4" class="node">
<title>Final1</title>
<ellipse fill="gold" stroke="black" cx="54" cy="-22" rx="28.68" ry="18"/>
<ellipse fill="none" stroke="black" cx="54" cy="-22" rx="32.7" ry="22"/>
<text text-anchor="middle" x="54" y="-18.3" font-family="Times New Roman,serif" font-size="14.00">Final</text>
</g>
<!-- 33&#45;&gt;Final1 -->
<g id="edge4" class="edge">
<title>33&#45;&gt;Final1</title>
<path fill="none" stroke="black" d="M54,-79.84C54,-72.16 54,-62.88 54,-54.05"/>
<polygon fill="black" stroke="black" points="57.5,-54.03 54,-44.03 50.5,-54.03 57.5,-54.03"/>
</g>
<!-- n0 -->
<g id="node5" class="node">
<title>n0</title>
</g>
</g>
</svg>
