<?xml version="1.0" encoding="UTF-8" standalone="no"?>
<!DOCTYPE svg PUBLIC "-//W3C//DTD SVG 1.1//EN"
 "http://www.w3.org/Graphics/SVG/1.1/DTD/svg11.dtd">
<!-- Generated by graphviz version 2.44.1 (20200629.0800)
 -->
<!-- Title: G Pages: 1 -->
<svg width="397pt" height="188pt"
 viewBox="0.00 0.00 396.64 188.00" xmlns="http://www.w3.org/2000/svg" xmlns:xlink="http://www.w3.org/1999/xlink">
<g id="graph0" class="graph" transform="scale(1 1) rotate(0) translate(4 184)">
<title>G</title>
<polygon fill="white" stroke="transparent" points="-4,4 -4,-184 392.64,-184 392.64,4 -4,4"/>
<!-- OrdenarArray0 -->
<g id="node1" class="node">
<title>OrdenarArray0</title>
<ellipse fill="red" stroke="black" cx="206.49" cy="-162" rx="61.19" ry="18"/>
<text text-anchor="middle" x="206.49" y="-158.3" font-family="Times New Roman,serif" font-size="14.00">OrdenarArray</text>
</g>
<!-- MostrarAdelante1 -->
<g id="node2" class="node">
<title>MostrarAdelante1</title>
<ellipse fill="white" stroke="black" cx="71.49" cy="-90" rx="71.49" ry="18"/>
<text text-anchor="middle" x="71.49" y="-86.3" font-family="Times New Roman,serif" font-size="14.00">MostrarAdelante</text>
</g>
<!-- OrdenarArray0&#45;&gt;MostrarAdelante1 -->
<g id="edge1" class="edge">
<title>OrdenarArray0&#45;&gt;MostrarAdelante1</title>
<path fill="none" stroke="black" d="M177.53,-145.98C157.96,-135.83 131.89,-122.32 110.49,-111.22"/>
<polygon fill="black" stroke="black" points="111.83,-107.97 101.34,-106.48 108.61,-114.19 111.83,-107.97"/>
</g>
<!-- Escribir2 -->
<g id="node3" class="node">
<title>Escribir2</title>
<ellipse fill="white" stroke="black" cx="206.49" cy="-18" rx="38.99" ry="18"/>
<text text-anchor="middle" x="206.49" y="-14.3" font-family="Times New Roman,serif" font-size="14.00">Escribir</text>
</g>
<!-- OrdenarArray0&#45;&gt;Escribir2 -->
<g id="edge2" class="edge">
<title>OrdenarArray0&#45;&gt;Escribir2</title>
<path fill="none" stroke="black" d="M197.38,-144.15C192.19,-119.92 191.6,-74.96 195.62,-46.05"/>
<polygon fill="black" stroke="black" points="199.14,-46.27 197.39,-35.82 192.24,-45.08 199.14,-46.27"/>
</g>
<!-- OrdenarArray0&#45;&gt;Escribir2 -->
<g id="edge3" class="edge">
<title>OrdenarArray0&#45;&gt;Escribir2</title>
<path fill="none" stroke="black" d="M206.49,-143.87C206.49,-119.67 206.49,-75.21 206.49,-46.39"/>
<polygon fill="black" stroke="black" points="209.99,-46.19 206.49,-36.19 202.99,-46.19 209.99,-46.19"/>
</g>
<!-- OrdenarArray0&#45;&gt;Escribir2 -->
<g id="edge4" class="edge">
<title>OrdenarArray0&#45;&gt;Escribir2</title>
<path fill="none" stroke="black" d="M215.6,-144.15C220.8,-119.92 221.38,-74.96 217.36,-46.05"/>
<polygon fill="black" stroke="black" points="220.75,-45.08 215.6,-35.82 213.85,-46.27 220.75,-45.08"/>
</g>
<!-- MostrarAtras3 -->
<g id="node4" class="node">
<title>MostrarAtras3</title>
<ellipse fill="white" stroke="black" cx="311.49" cy="-90" rx="59.29" ry="18"/>
<text text-anchor="middle" x="311.49" y="-86.3" font-family="Times New Roman,serif" font-size="14.00">MostrarAtras</text>
</g>
<!-- OrdenarArray0&#45;&gt;MostrarAtras3 -->
<g id="edge5" class="edge">
<title>OrdenarArray0&#45;&gt;MostrarAtras3</title>
<path fill="none" stroke="black" d="M230.06,-145.29C244.65,-135.56 263.58,-122.95 279.51,-112.32"/>
<polygon fill="black" stroke="black" points="281.63,-115.12 288.01,-106.66 277.75,-109.29 281.63,-115.12"/>
</g>
<!-- MostrarAdelante1&#45;&gt;MostrarAdelante1 -->
<g id="edge6" class="edge">
<title>MostrarAdelante1&#45;&gt;MostrarAdelante1</title>
<path fill="none" stroke="black" d="M120.28,-103.29C142.11,-104.55 160.99,-100.12 160.99,-90 160.99,-81.54 147.8,-77.05 130.72,-76.55"/>
<polygon fill="black" stroke="black" points="130.23,-73.06 120.28,-76.71 130.34,-80.05 130.23,-73.06"/>
</g>
<!-- MostrarAdelante1&#45;&gt;Escribir2 -->
<g id="edge7" class="edge">
<title>MostrarAdelante1&#45;&gt;Escribir2</title>
<path fill="none" stroke="black" d="M101.45,-73.46C122.53,-62.54 150.75,-47.9 172.64,-36.55"/>
<polygon fill="black" stroke="black" points="174.32,-39.62 181.59,-31.91 171.1,-33.41 174.32,-39.62"/>
</g>
<!-- MostrarAtras3&#45;&gt;Escribir2 -->
<g id="edge8" class="edge">
<title>MostrarAtras3&#45;&gt;Escribir2</title>
<path fill="none" stroke="black" d="M287.93,-73.29C272.73,-63.16 252.82,-49.88 236.49,-39"/>
<polygon fill="black" stroke="black" points="238.1,-35.86 227.84,-33.23 234.22,-41.69 238.1,-35.86"/>
</g>
<!-- MostrarAtras3&#45;&gt;MostrarAtras3 -->
<g id="edge9" class="edge">
<title>MostrarAtras3&#45;&gt;MostrarAtras3</title>
<path fill="none" stroke="black" d="M351.98,-103.17C371.45,-104.8 388.64,-100.41 388.64,-90 388.64,-81.46 377.07,-76.98 362.17,-76.54"/>
<polygon fill="black" stroke="black" points="361.87,-73.04 351.98,-76.83 362.07,-80.04 361.87,-73.04"/>
</g>
<!-- n0 -->
<g id="node5" class="node">
<title>n0</title>
</g>
</g>
</svg>
