<?xml version="1.0" encoding="UTF-8" standalone="no"?>
<!DOCTYPE svg PUBLIC "-//W3C//DTD SVG 1.1//EN"
 "http://www.w3.org/Graphics/SVG/1.1/DTD/svg11.dtd">
<!-- Generated by graphviz version 2.44.1 (20200629.0800)
 -->
<!-- Title: G Pages: 1 -->
<svg width="481pt" height="556pt"
 viewBox="0.00 0.00 481.35 556.00" xmlns="http://www.w3.org/2000/svg" xmlns:xlink="http://www.w3.org/1999/xlink">
<g id="graph0" class="graph" transform="scale(1 1) rotate(0) translate(4 552)">
<title>G</title>
<polygon fill="white" stroke="transparent" points="-4,4 -4,-552 477.35,-552 477.35,4 -4,4"/>
<!-- Inicio0 -->
<g id="node1" class="node">
<title>Inicio0</title>
<ellipse fill="red" stroke="black" cx="186" cy="-530" rx="31.4" ry="18"/>
<text text-anchor="middle" x="186" y="-526.3" font-family="Times New Roman,serif" font-size="14.00">Inicio</text>
</g>
<!-- Para2 -->
<g id="node2" class="node">
<title>Para2</title>
<ellipse fill="white" stroke="black" cx="186" cy="-458" rx="27" ry="18"/>
<text text-anchor="middle" x="186" y="-454.3" font-family="Times New Roman,serif" font-size="14.00">Para</text>
</g>
<!-- Inicio0&#45;&gt;Para2 -->
<g id="edge1" class="edge">
<title>Inicio0&#45;&gt;Para2</title>
<path fill="none" stroke="black" d="M186,-511.7C186,-503.98 186,-494.71 186,-486.11"/>
<polygon fill="black" stroke="black" points="189.5,-486.1 186,-476.1 182.5,-486.1 189.5,-486.1"/>
</g>
<!-- 33 -->
<g id="node3" class="node">
<title>33</title>
<ellipse fill="white" stroke="black" cx="131" cy="-386" rx="27" ry="18"/>
<text text-anchor="middle" x="131" y="-382.3" font-family="Times New Roman,serif" font-size="14.00">3</text>
</g>
<!-- Para2&#45;&gt;33 -->
<g id="edge2" class="edge">
<title>Para2&#45;&gt;33</title>
<path fill="none" stroke="black" d="M174.07,-441.81C166.79,-432.55 157.34,-420.52 149.15,-410.09"/>
<polygon fill="black" stroke="black" points="151.84,-407.86 142.91,-402.16 146.34,-412.18 151.84,-407.86"/>
</g>
<!-- FinPara9 -->
<g id="node4" class="node">
<title>FinPara9</title>
<ellipse fill="white" stroke="black" cx="261" cy="-386" rx="38.19" ry="18"/>
<text text-anchor="middle" x="261" y="-382.3" font-family="Times New Roman,serif" font-size="14.00">FinPara</text>
</g>
<!-- Para2&#45;&gt;FinPara9 -->
<g id="edge3" class="edge">
<title>Para2&#45;&gt;FinPara9</title>
<path fill="none" stroke="black" d="M201.18,-442.83C211.5,-433.2 225.37,-420.25 237.16,-409.25"/>
<polygon fill="black" stroke="black" points="239.62,-411.74 244.54,-402.36 234.85,-406.62 239.62,-411.74"/>
</g>
<!-- Para4 -->
<g id="node5" class="node">
<title>Para4</title>
<ellipse fill="white" stroke="black" cx="126" cy="-314" rx="27" ry="18"/>
<text text-anchor="middle" x="126" y="-310.3" font-family="Times New Roman,serif" font-size="14.00">Para</text>
</g>
<!-- 33&#45;&gt;Para4 -->
<g id="edge4" class="edge">
<title>33&#45;&gt;Para4</title>
<path fill="none" stroke="black" d="M129.76,-367.7C129.21,-359.98 128.55,-350.71 127.94,-342.11"/>
<polygon fill="black" stroke="black" points="131.43,-341.83 127.22,-332.1 124.44,-342.33 131.43,-341.83"/>
</g>
<!-- Para10 -->
<g id="node10" class="node">
<title>Para10</title>
<ellipse fill="white" stroke="black" cx="269" cy="-314" rx="27" ry="18"/>
<text text-anchor="middle" x="269" y="-310.3" font-family="Times New Roman,serif" font-size="14.00">Para</text>
</g>
<!-- FinPara9&#45;&gt;Para10 -->
<g id="edge12" class="edge">
<title>FinPara9&#45;&gt;Para10</title>
<path fill="none" stroke="black" d="M262.98,-367.7C263.86,-359.98 264.92,-350.71 265.9,-342.11"/>
<polygon fill="black" stroke="black" points="269.39,-342.44 267.05,-332.1 262.43,-341.64 269.39,-342.44"/>
</g>
<!-- 55 -->
<g id="node6" class="node">
<title>55</title>
<ellipse fill="white" stroke="black" cx="65" cy="-242" rx="27" ry="18"/>
<text text-anchor="middle" x="65" y="-238.3" font-family="Times New Roman,serif" font-size="14.00">5</text>
</g>
<!-- Para4&#45;&gt;55 -->
<g id="edge5" class="edge">
<title>Para4&#45;&gt;55</title>
<path fill="none" stroke="black" d="M113.06,-298.15C104.81,-288.69 93.96,-276.24 84.66,-265.56"/>
<polygon fill="black" stroke="black" points="87.13,-263.06 77.92,-257.82 81.85,-267.66 87.13,-263.06"/>
</g>
<!-- FinPara8 -->
<g id="node7" class="node">
<title>FinPara8</title>
<ellipse fill="white" stroke="black" cx="186" cy="-242" rx="38.19" ry="18"/>
<text text-anchor="middle" x="186" y="-238.3" font-family="Times New Roman,serif" font-size="14.00">FinPara</text>
</g>
<!-- Para4&#45;&gt;FinPara8 -->
<g id="edge6" class="edge">
<title>Para4&#45;&gt;FinPara8</title>
<path fill="none" stroke="black" d="M139.02,-297.81C146.74,-288.8 156.71,-277.18 165.47,-266.95"/>
<polygon fill="black" stroke="black" points="168.32,-269 172.17,-259.13 163.01,-264.45 168.32,-269"/>
</g>
<!-- Si6 -->
<g id="node8" class="node">
<title>Si6</title>
<ellipse fill="white" stroke="black" cx="27" cy="-170" rx="27" ry="18"/>
<text text-anchor="middle" x="27" y="-166.3" font-family="Times New Roman,serif" font-size="14.00">Si</text>
</g>
<!-- 55&#45;&gt;Si6 -->
<g id="edge7" class="edge">
<title>55&#45;&gt;Si6</title>
<path fill="none" stroke="black" d="M56.19,-224.76C51.58,-216.28 45.84,-205.71 40.68,-196.2"/>
<polygon fill="black" stroke="black" points="43.61,-194.27 35.77,-187.15 37.46,-197.61 43.61,-194.27"/>
</g>
<!-- 77 -->
<g id="node9" class="node">
<title>77</title>
<ellipse fill="white" stroke="black" cx="82" cy="-98" rx="27" ry="18"/>
<text text-anchor="middle" x="82" y="-94.3" font-family="Times New Roman,serif" font-size="14.00">7</text>
</g>
<!-- 55&#45;&gt;77 -->
<g id="edge8" class="edge">
<title>55&#45;&gt;77</title>
<path fill="none" stroke="black" d="M67.05,-223.87C69.95,-199.67 75.27,-155.21 78.72,-126.39"/>
<polygon fill="black" stroke="black" points="82.23,-126.53 79.94,-116.19 75.28,-125.7 82.23,-126.53"/>
</g>
<!-- FinPara8&#45;&gt;Para2 -->
<g id="edge11" class="edge">
<title>FinPara8&#45;&gt;Para2</title>
<path fill="none" stroke="black" d="M186,-260.23C186,-297.32 186,-384.98 186,-429.71"/>
<polygon fill="black" stroke="black" points="182.5,-429.85 186,-439.85 189.5,-429.85 182.5,-429.85"/>
</g>
<!-- Si6&#45;&gt;77 -->
<g id="edge9" class="edge">
<title>Si6&#45;&gt;77</title>
<path fill="none" stroke="black" d="M38.93,-153.81C46.21,-144.55 55.66,-132.52 63.85,-122.09"/>
<polygon fill="black" stroke="black" points="66.66,-124.18 70.09,-114.16 61.16,-119.86 66.66,-124.18"/>
</g>
<!-- 77&#45;&gt;Para4 -->
<g id="edge10" class="edge">
<title>77&#45;&gt;Para4</title>
<path fill="none" stroke="black" d="M85.48,-115.94C93.09,-152.92 111.24,-241.2 120.44,-285.97"/>
<polygon fill="black" stroke="black" points="117.03,-286.76 122.47,-295.85 123.89,-285.35 117.03,-286.76"/>
</g>
<!-- 1111 -->
<g id="node11" class="node">
<title>1111</title>
<ellipse fill="white" stroke="black" cx="269" cy="-242" rx="27" ry="18"/>
<text text-anchor="middle" x="269" y="-238.3" font-family="Times New Roman,serif" font-size="14.00">11</text>
</g>
<!-- Para10&#45;&gt;1111 -->
<g id="edge13" class="edge">
<title>Para10&#45;&gt;1111</title>
<path fill="none" stroke="black" d="M263.16,-296.41C262.3,-288.51 262.05,-278.85 262.41,-269.94"/>
<polygon fill="black" stroke="black" points="265.9,-270.18 263.12,-259.96 258.92,-269.68 265.9,-270.18"/>
</g>
<!-- FinPara12 -->
<g id="node12" class="node">
<title>FinPara12</title>
<ellipse fill="white" stroke="black" cx="352" cy="-242" rx="38.19" ry="18"/>
<text text-anchor="middle" x="352" y="-238.3" font-family="Times New Roman,serif" font-size="14.00">FinPara</text>
</g>
<!-- Para10&#45;&gt;FinPara12 -->
<g id="edge14" class="edge">
<title>Para10&#45;&gt;FinPara12</title>
<path fill="none" stroke="black" d="M285.4,-299.17C297.06,-289.34 312.95,-275.93 326.29,-264.69"/>
<polygon fill="black" stroke="black" points="328.81,-267.14 334.2,-258.01 324.3,-261.78 328.81,-267.14"/>
</g>
<!-- 1111&#45;&gt;Para10 -->
<g id="edge15" class="edge">
<title>1111&#45;&gt;Para10</title>
<path fill="none" stroke="black" d="M274.88,-259.96C275.71,-267.83 275.95,-277.37 275.58,-286.19"/>
<polygon fill="black" stroke="black" points="272.07,-286.18 274.84,-296.41 279.06,-286.69 272.07,-286.18"/>
</g>
<!-- Para13 -->
<g id="node13" class="node">
<title>Para13</title>
<ellipse fill="white" stroke="black" cx="352" cy="-170" rx="27" ry="18"/>
<text text-anchor="middle" x="352" y="-166.3" font-family="Times New Roman,serif" font-size="14.00">Para</text>
</g>
<!-- FinPara12&#45;&gt;Para13 -->
<g id="edge16" class="edge">
<title>FinPara12&#45;&gt;Para13</title>
<path fill="none" stroke="black" d="M352,-223.7C352,-215.98 352,-206.71 352,-198.11"/>
<polygon fill="black" stroke="black" points="355.5,-198.1 352,-188.1 348.5,-198.1 355.5,-198.1"/>
</g>
<!-- 1414 -->
<g id="node14" class="node">
<title>1414</title>
<ellipse fill="white" stroke="black" cx="352" cy="-98" rx="27" ry="18"/>
<text text-anchor="middle" x="352" y="-94.3" font-family="Times New Roman,serif" font-size="14.00">14</text>
</g>
<!-- Para13&#45;&gt;1414 -->
<g id="edge17" class="edge">
<title>Para13&#45;&gt;1414</title>
<path fill="none" stroke="black" d="M346.16,-152.41C345.3,-144.51 345.05,-134.85 345.41,-125.94"/>
<polygon fill="black" stroke="black" points="348.9,-126.18 346.12,-115.96 341.92,-125.68 348.9,-126.18"/>
</g>
<!-- FinPara15 -->
<g id="node15" class="node">
<title>FinPara15</title>
<ellipse fill="white" stroke="black" cx="435" cy="-98" rx="38.19" ry="18"/>
<text text-anchor="middle" x="435" y="-94.3" font-family="Times New Roman,serif" font-size="14.00">FinPara</text>
</g>
<!-- Para13&#45;&gt;FinPara15 -->
<g id="edge18" class="edge">
<title>Para13&#45;&gt;FinPara15</title>
<path fill="none" stroke="black" d="M368.4,-155.17C380.06,-145.34 395.95,-131.93 409.29,-120.69"/>
<polygon fill="black" stroke="black" points="411.81,-123.14 417.2,-114.01 407.3,-117.78 411.81,-123.14"/>
</g>
<!-- 1414&#45;&gt;Para13 -->
<g id="edge19" class="edge">
<title>1414&#45;&gt;Para13</title>
<path fill="none" stroke="black" d="M357.88,-115.96C358.71,-123.83 358.95,-133.37 358.58,-142.19"/>
<polygon fill="black" stroke="black" points="355.07,-142.18 357.84,-152.41 362.06,-142.69 355.07,-142.18"/>
</g>
<!-- Final1 -->
<g id="node16" class="node">
<title>Final1</title>
<ellipse fill="gold" stroke="black" cx="435" cy="-22" rx="28.68" ry="18"/>
<ellipse fill="none" stroke="black" cx="435" cy="-22" rx="32.7" ry="22"/>
<text text-anchor="middle" x="435" y="-18.3" font-family="Times New Roman,serif" font-size="14.00">Final</text>
</g>
<!-- FinPara15&#45;&gt;Final1 -->
<g id="edge20" class="edge">
<title>FinPara15&#45;&gt;Final1</title>
<path fill="none" stroke="black" d="M435,-79.84C435,-72.16 435,-62.88 435,-54.05"/>
<polygon fill="black" stroke="black" points="438.5,-54.03 435,-44.03 431.5,-54.03 438.5,-54.03"/>
</g>
<!-- n0 -->
<g id="node17" class="node">
<title>n0</title>
</g>
</g>
</svg>
